Coordinates
version=1
nRows=9
nColumns=36
inDegrees=yes

Units are S.I. units (second, meters, Newtons, ...)
If the header above contains a line with 'inDegrees', this indicates whether rotational values are in degrees (yes) or radians (no).

endheader
time	pelvis_tilt	pelvis_list	pelvis_rotation	pelvis_tx	pelvis_ty	pelvis_tz	hip_flexion_r	hip_adduction_r	hip_rotation_r	knee_angle_r	knee_angle_r_beta	ankle_angle_r	subtalar_angle_r	mtp_angle_r	hip_flexion_l	hip_adduction_l	hip_rotation_l	knee_angle_l	knee_angle_l_beta	ankle_angle_l	subtalar_angle_l	mtp_angle_l	lumbar_extension	lumbar_bending	lumbar_rotation	arm_flex_r	arm_add_r	arm_rot_r	elbow_flex_r	pro_sup_r	arm_flex_l	arm_add_l	arm_rot_l	elbow_flex_l	pro_sup_l
      0.00000000	      6.34764862	     -0.33876747	     -6.67701009	      0.68326288	      0.94213433	     -0.03285206	     -8.98776770	     -7.79429177	     -4.71293614	      1.49873379	      0.02615784	      7.77089862	     -4.61804129	     -7.03000598	    -10.96460024	     -6.84783961	     -2.52232645	      2.67814700	      0.04674248	     14.81358339	      0.02531538	     -7.03000598	     -1.10108378	     -2.30122953	     -6.30150214	     36.81513128	      2.84340251	     54.63650636	    107.73680439	     70.99651992	     47.69036088	      2.30636485	     58.77557118	    114.38371088	     78.69665161
      0.01666670	      6.65991232	      0.46669243	     -8.67514217	      0.68456902	      0.94240715	     -0.03137597	     -8.32308924	     -9.42889585	     -4.52176989	      2.35749341	      0.04114602	      9.47565403	     -2.38547597	     -7.15997979	    -10.92384830	     -5.55289448	     -5.85501796	      3.85031354	      0.06720065	     15.09019067	     -0.43392994	     -7.15997979	     -1.28225860	     -2.34591884	     -4.87473931	     40.94408689	     -0.53782420	     63.61449867	    112.65381391	     87.19445603	     46.59635365	     -0.26522650	     54.82129218	    119.79331347	     94.69580765
      0.03333330	      6.54286642	      0.75305317	     -8.17634510	      0.68562529	      0.94271931	     -0.03125127	     -7.93315066	     -9.77481525	     -4.96567750	      3.16735352	      0.05528075	      9.87613311	     -2.32168895	     -7.26956406	     -9.77658317	     -5.42308468	     -7.04481457	      5.62621853	      0.09819604	     15.22440352	     -0.63731403	     -7.26956406	     -0.68613585	     -2.67580404	     -6.30575413	     41.13220839	      0.57779793	     64.45757011	    112.42572484	     92.86063296	     45.79882723	     -2.42898173	     54.42677125	    121.33048578	     99.56184884
      0.05000000	      6.43450784	      0.98022118	     -7.51043852	      0.68578704	      0.93860082	     -0.03220755	     -7.91851958	    -10.01095375	     -5.68867621	      3.22839449	      0.05634611	      9.71213254	     -2.08401704	     -7.31095916	     -9.08012773	     -5.32173702	     -7.79426444	      6.46600267	      0.11285304	     15.28902028	     -0.48852202	     -7.31095916	     -0.31754955	     -2.99250914	     -7.63136021	     41.50997849	      1.77552194	     65.01537966	    111.97388696	     94.43157720	     45.68843127	     -3.46452479	     53.88644394	    122.13164639	    100.14198023
      0.06666670	      6.45590963	      1.07414622	     -7.19658450	      0.68656461	      0.94306182	     -0.03208818	     -8.00798187	    -10.09495555	     -5.86287035	      3.34311229	      0.05834832	      9.66337122	     -2.06522564	     -7.31162364	     -8.85054648	     -5.30842803	     -8.16583964	      6.91873367	      0.12075468	     15.12316094	     -0.69062774	     -7.31162364	     -0.38411044	     -3.30375425	     -7.68026310	     41.08682983	      2.01845238	     65.39067503	    111.87589540	     94.46113326	     45.72646386	     -3.68082597	     53.99628331	    122.08972677	    100.14013823
      0.08333330	      5.79954395	      1.11104414	     -6.83805440	      0.69242082	      0.94719374	     -0.02614344	     -7.41706755	     -9.98016592	     -6.55462813	      3.52573655	      0.06153571	      9.65624342	     -1.79976953	     -7.31523059	     -7.92947994	     -5.50964409	     -8.17069714	      7.43232148	      0.12971848	     15.17989566	     -0.96380743	     -7.31523059	      0.64042854	     -3.42585872	     -8.16918018	     40.16589098	      2.71240325	     65.93124187	    110.94194556	     94.49004025	     45.14691948	     -4.56781884	     54.70744316	    122.96773684	    100.00929388
      0.10000000	      5.46500773	      1.12274625	     -6.70854362	      0.69274815	      0.94970707	     -0.02665700	     -7.08406880	     -9.90878323	     -6.89320380	      3.69110994	      0.06442202	      9.68335235	     -1.61546820	     -7.36020382	     -7.47814294	     -5.61241091	     -8.42008578	      7.70729583	      0.13451769	     15.04213654	     -1.20631556	     -7.36020382	      1.16701659	     -3.33039725	     -8.72586612	     40.27574782	      3.29359128	     66.52010354	    110.28189887	     92.11875871	     44.17917800	     -5.34446276	     54.31498990	    124.31843711	     97.07222771
      0.11666670	      5.19025535	      1.16844648	     -6.60586335	      0.68778322	      0.94592653	     -0.03225682	     -6.77053570	     -9.91875553	     -7.14378421	      3.78003115	      0.06597399	      9.62131461	     -1.71347659	     -7.36233747	     -7.03053537	     -5.60724311	     -8.59843129	      7.98572294	      0.13937716	     15.08730302	     -1.33856470	     -7.36233747	      1.40507972	     -3.28803153	     -8.45498781	     40.63489083	      2.81670661	     66.45514558	    110.11108198	     92.09691936	     44.64367312	     -4.99855877	     54.20556632	    124.66657219	     97.04294374
      0.13333330	      5.07712424	      1.12974240	     -6.49666218	      0.69370846	      0.94673489	     -0.02635364	     -6.79271860	     -9.77264995	     -7.33526757	      3.74872638	      0.06542762	      9.68725648	     -1.86489490	     -7.36335883	     -6.82626856	     -5.69877107	     -8.84230010	      8.17279901	      0.14264225	     15.01138113	     -1.40643685	     -7.36335883	      1.63973411	     -3.29037411	     -8.27516648	     40.78883287	      2.48301818	     66.08685628	    109.93851743	     92.02776566	     44.68671068	     -4.92333075	     54.13577300	    124.99480121	     97.00521435
